<svg width="19" height="15" viewBox="0 0 19 15" fill="none" xmlns="http://www.w3.org/2000/svg">
<path d="M9.83844 12.7663C8.58878 12.5959 6.60069 12.4444 4.23391 12.6527C5.80545 12.0468 7.33913 11.5545 8.43731 11.2516C8.64559 11.1948 8.79706 10.9865 8.75919 10.7593C8.74026 10.5321 8.55091 10.3617 8.3237 10.3617C6.69536 10.2859 5.31316 10.2291 4.27178 10.1913C6.1084 9.43389 7.07405 9.03628 7.09298 9.01734C7.26339 8.9416 7.37699 8.7712 7.35806 8.56292C7.33912 8.37358 7.20659 8.20317 7.01724 8.1653L4.25285 7.42687C4.0067 7.37006 3.76056 7.5026 3.70376 7.74875C3.64695 7.99489 3.77949 8.24104 4.02564 8.29784L5.52144 8.69546C4.70727 9.03628 3.51441 9.52856 1.92394 10.1723C1.7346 10.2481 1.60206 10.4563 1.63993 10.6836C1.6778 10.8918 1.86714 11.0433 2.07541 11.0622C2.09435 11.0622 3.43868 11.0812 5.72972 11.1758C3.98777 11.7817 1.96181 12.558 0.295597 13.3722C0.0873211 13.4669 -0.00734998 13.713 0.0683869 13.9402C0.144124 14.1296 0.314532 14.2432 0.48494 14.2432C0.522808 14.2432 0.560676 14.2432 0.598545 14.2243C4.65047 13.2018 8.2101 13.4858 9.95205 13.7509C9.93311 13.6941 9.93311 13.6373 9.91418 13.5616L9.83844 12.7663Z" fill="#F8F8F8"/>
<path d="M17.1849 0.686203L15.8784 0.156045C15.5376 0.0235057 15.1779 0.0235057 14.8371 0.156045C14.4962 0.288585 14.2501 0.553664 14.1176 0.89448L10.5011 9.83143C10.4822 9.90717 10.4633 9.9829 10.4633 10.0586L10.8419 13.4289C10.8609 13.5993 10.9745 13.7319 11.126 13.7887C11.1828 13.8076 11.2396 13.8265 11.2964 13.8265C11.391 13.8265 11.5046 13.7887 11.5804 13.7319L14.1933 11.5734C14.2501 11.5166 14.288 11.4598 14.3258 11.403L17.9423 2.44709C18.2263 1.76545 17.8855 0.970217 17.1849 0.686203ZM14.9507 1.2353C14.9885 1.12169 15.0832 1.02702 15.1968 0.989151C15.3104 0.932348 15.424 0.932348 15.5376 0.989151L16.8441 1.51931C17.0713 1.61398 17.1849 1.87906 17.0902 2.10627L16.8062 2.80684C16.4843 2.61749 16.1435 2.44709 15.7648 2.29561C15.3862 2.14414 15.0075 2.03053 14.6667 1.93586L14.9507 1.2353ZM11.41 10.3805C11.7129 10.4563 12.0348 10.5509 12.3567 10.6835C12.6786 10.816 12.9815 10.9675 13.2655 11.119L11.6372 12.4633L11.41 10.3805ZM13.7578 10.3805C13.4359 10.1912 13.0951 10.0208 12.7164 9.8693C12.3377 9.71782 11.9591 9.60422 11.6182 9.50955L14.3448 2.7879C14.6856 2.86364 15.0643 2.97724 15.4619 3.12872C15.8406 3.28019 16.2003 3.46953 16.5033 3.65888L13.7578 10.3805Z" fill="#F8F8F8"/>
</svg>
