<svg width="24" height="24" viewBox="0 0 24 24" fill="none" xmlns="http://www.w3.org/2000/svg">
<path fill-rule="evenodd" clip-rule="evenodd" d="M0 3.6C0 1.61178 1.61177 0 3.6 0H20.4C22.3883 0 24 1.61178 24 3.6V18C24 19.9883 22.3883 21.6 20.4 21.6H14.897L12.8485 23.6485C12.8485 23.6485 12.3182 24 12 24C11.6818 24 11.3765 23.8735 11.1515 23.6485L9.10295 21.6H3.6C1.61178 21.6 0 19.9883 0 18V3.6ZM8.4 12C8.4 12.6628 7.86274 13.2 7.2 13.2C6.53726 13.2 6 12.6628 6 12V9.6C6 8.93726 6.53726 8.4 7.2 8.4C7.86274 8.4 8.4 8.93726 8.4 9.6V12ZM16.8 13.2C17.4628 13.2 18 12.6628 18 12V9.6C18 8.93726 17.4628 8.4 16.8 8.4C16.1372 8.4 15.6 8.93726 15.6 9.6V12C15.6 12.6628 16.1372 13.2 16.8 13.2ZM10.8 15.6C10.8 16.2628 11.3372 16.8 12 16.8C12.6628 16.8 13.2 16.2628 13.2 15.6V6C13.2 5.33725 12.6628 4.8 12 4.8C11.3372 4.8 10.8 5.33725 10.8 6V15.6Z" fill="#BDBDBD"/>
</svg>
